<svg xmlns="http://www.w3.org/2000/svg" viewBox="0 0 64 64"><g fill="none"><path fill="#F7931A" d="M63 39.7C58.8 57 41.4 67.3 24.3 63 7 58.8-3.3 41.4 1 24.3 5.2 7 22.6-3.3 39.7 1 57 5.2 67.3 22.6 63 39.7z"/><path fill="#FFF" d="M46 27.4c.7-4.2-2.5-6.5-7-8l1.5-5.8-3.5-1-1.4 5.7-2.8-.6 1.4-5.7-3.5-.8-1.5 5.7c-.7-.5-1.5-.6-2.2-.8L22.2 15l-1 3.8 2.6.6c1.4.3 1.7 1.2 1.6 2L23.8 28h.2l-2.3 9.2c-.2.4-.6 1-1.6.8l-2.5-.6-1.7 4 4.5 1 2.6.8-1.5 5.8 3.5 1 1.3-6 3 1-1.5 5.6 3.5 1 1.5-6c6 1.2 10.5.7 12.3-4.7 1.8-4.4 0-7-3-8.6 2.3-.5 4-2 4.5-5.2zm-8 11.3c-1 4.4-8.3 2-10.7 1.4l2-7.4c2.3.6 10 1.7 8.8 6.3zm1.2-11.3c-1 4-7 2-9 1.4l1.6-7c2 .5 8.4 1.4 7.4 5.6z"/></g></svg>