<svg xmlns="http://www.w3.org/2000/svg" viewBox=".8 .9 329.3 329.3"><path fill="#bebebe" d="M330 165.5c0 91-73.6 164.6-164.5 164.6C74.5 330 .8 256.6.8 165.7.8 74.6 74.6 1 165.5 1 256.5 1 330 74.5 330 165.4"/><path fill="#bebebe" d="M295 165.5c0 71.6-58 129.7-129.5 129.7-71.6 0-129.7-58-129.7-129.7 0-71.6 58-129.7 129.7-129.7 71.6 0 129.6 58 129.6 129.7"/><path fill="#fff" d="M156 209.5l10.5-40.3L192 160l6.2-23.7-.3-.6-25 9 18-67.5h-51l-23.5 88.2-19.6 7.2-6.6 24.4 19.6-7.2-13.8 52h135.6l8.7-32.3H156"/></svg>